<svg version="1.1" id="Layer_1" xmlns="http://www.w3.org/2000/svg" xmlns:xlink="http://www.w3.org/1999/xlink" x="0px" y="0px" width="100%" viewBox="0 0 1024 1024" enable-background="new 0 0 1024 1024" xml:space="preserve">
<path fill="#7BB5DD" opacity="1.000000" stroke="none" d="&#xA;M678.000000,1025.000000 &#xA;&#x9;C452.000000,1025.000000 226.500000,1025.000000 1.000000,1025.000000 &#xA;&#x9;C1.000000,683.666687 1.000000,342.333344 1.000000,1.000000 &#xA;&#x9;C342.333344,1.000000 683.666687,1.000000 1025.000000,1.000000 &#xA;&#x9;C1025.000000,342.333344 1025.000000,683.666687 1025.000000,1025.000000 &#xA;&#x9;C909.500000,1025.000000 794.000000,1025.000000 678.000000,1025.000000 &#xA;M383.955109,757.370361 &#xA;&#x9;C383.640015,756.913452 383.324921,756.456482 382.983307,755.240601 &#xA;&#x9;C381.775452,752.357300 381.164215,748.972351 379.243835,746.688110 &#xA;&#x9;C374.203674,740.692810 374.315735,739.468140 379.285095,733.284241 &#xA;&#x9;C383.042725,728.608215 385.805084,723.132385 389.605347,717.681763 &#xA;&#x9;C394.489044,711.277588 399.393677,704.889160 404.246216,698.461426 &#xA;&#x9;C406.222229,695.844055 408.464142,693.321472 409.850555,690.406433 &#xA;&#x9;C410.622498,688.783325 410.658722,685.747681 409.630188,684.599854 &#xA;&#x9;C408.345093,683.165588 405.630035,682.434631 403.521637,682.412354 &#xA;&#x9;C392.089600,682.292114 380.642975,682.217957 369.225708,682.701965 &#xA;&#x9;C364.746246,682.891846 359.361511,680.380920 355.839783,684.917786 &#xA;&#x9;C351.719269,690.226074 348.039825,695.896545 344.438965,701.580872 &#xA;&#x9;C342.349335,704.879639 340.790070,708.514465 338.391754,712.330688 &#xA;&#x9;C334.720886,715.826904 330.872681,719.217834 330.164703,724.703430 &#xA;&#x9;C329.776398,722.847351 329.055664,720.992310 329.050018,719.135071 &#xA;&#x9;C328.975189,694.477173 329.009674,669.819031 328.995178,645.160950 &#xA;&#x9;C328.991333,638.571411 327.387909,637.032410 320.675629,636.999756 &#xA;&#x9;C310.181946,636.948669 299.672211,637.234009 289.199890,636.734985 &#xA;&#x9;C281.561157,636.371033 278.003479,639.051697 278.002655,646.716736 &#xA;&#x9;C277.997437,696.865906 277.998840,747.015137 278.005463,797.164307 &#xA;&#x9;C278.005646,798.661743 277.761383,800.261841 278.194641,801.636414 &#xA;&#x9;C279.276672,805.069153 280.762878,807.947510 285.362671,807.778442 &#xA;&#x9;C296.653351,807.363342 307.970337,806.870789 319.250397,807.232300 &#xA;&#x9;C327.107635,807.484070 328.999176,806.404358 329.000610,798.462891 &#xA;&#x9;C329.002930,785.725647 329.001221,772.988403 329.001221,760.188354 &#xA;&#x9;C331.833221,763.329224 334.404114,766.180542 337.011627,769.762878 &#xA;&#x9;C341.579193,777.576782 346.103638,785.416382 350.735413,793.192078 &#xA;&#x9;C352.596344,796.316101 354.390320,799.567444 356.776184,802.264221 &#xA;&#x9;C358.744141,804.488708 361.310059,806.893616 364.024109,807.576172 &#xA;&#x9;C367.748810,808.513000 371.863647,807.932983 375.811401,807.941223 &#xA;&#x9;C384.890411,807.960144 393.970337,808.011658 403.047974,807.896606 &#xA;&#x9;C405.833679,807.861267 408.790161,807.818298 411.348633,806.893799 &#xA;&#x9;C414.265381,805.839905 416.720551,803.428772 414.409698,800.020203 &#xA;&#x9;C411.560181,795.817017 408.167999,791.981689 404.901001,787.267456 &#xA;&#x9;C404.111969,785.468750 403.541687,783.529419 402.492981,781.897583 &#xA;&#x9;C399.310303,776.945251 396.108856,771.987122 392.577667,767.284302 &#xA;&#x9;C390.778503,764.888184 388.257416,763.034180 386.003174,760.261292 &#xA;&#x9;C385.356323,759.484619 384.709473,758.707947 383.955109,757.370361 &#xA;M560.995422,639.979065 &#xA;&#x9;C560.995422,639.979065 560.927673,639.978394 560.171875,640.143555 &#xA;&#x9;C559.447937,641.987915 558.095825,643.830811 558.091614,645.676758 &#xA;&#x9;C557.977051,696.132812 557.998413,746.589111 558.009033,797.045410 &#xA;&#x9;C558.009338,798.372253 557.994141,799.728333 558.244934,801.020508 &#xA;&#x9;C558.984924,804.833374 560.723450,807.093323 565.265503,807.104431 &#xA;&#x9;C576.480286,807.131897 587.692261,807.747620 598.908447,807.972412 &#xA;&#x9;C606.552917,808.125671 608.982056,805.609192 608.994629,797.889282 &#xA;&#x9;C609.017639,783.734863 609.000305,769.580505 609.000061,755.426086 &#xA;&#x9;C608.999878,741.438232 609.227661,727.445557 608.935791,713.463806 &#xA;&#x9;C608.645935,699.579468 609.729431,685.716003 609.077881,671.824097 &#xA;&#x9;C608.664917,663.017761 608.717896,654.164062 609.099182,645.354919 &#xA;&#x9;C609.358459,639.366028 607.940430,637.204102 600.941956,637.053162 &#xA;&#x9;C591.288147,636.844971 581.625854,636.947754 571.968933,637.062744 &#xA;&#x9;C570.654663,637.078308 569.350403,637.934570 567.355896,638.576599 &#xA;&#x9;C566.891724,638.517761 566.427551,638.458923 565.694641,637.859131 &#xA;&#x9;C563.063843,636.116821 561.695557,637.273865 560.995422,639.979065 &#xA;M339.124878,403.886566 &#xA;&#x9;C343.084564,405.958313 347.044281,408.030029 351.290131,410.437408 &#xA;&#x9;C351.290131,410.437408 351.709473,410.574127 352.201233,411.005768 &#xA;&#x9;C357.902771,414.224731 363.604279,417.443726 369.475647,420.758575 &#xA;&#x9;C366.984863,426.343353 364.622070,431.429535 362.432983,436.589386 &#xA;&#x9;C356.085449,451.551117 350.408752,466.714539 349.163086,483.911804 &#xA;&#x9;C350.894287,495.239685 356.260651,505.018860 362.836975,514.054138 &#xA;&#x9;C386.330322,546.331787 418.185211,566.928162 455.906891,578.521851 &#xA;&#x9;C474.673035,584.289612 493.930786,587.218445 513.768311,578.966553 &#xA;&#x9;C517.093262,577.491760 520.485352,576.150757 523.732727,574.521362 &#xA;&#x9;C554.817322,558.924377 580.364685,536.209778 604.658936,511.807892 &#xA;&#x9;C616.507507,499.906830 628.717163,488.353546 641.045593,476.947845 &#xA;&#x9;C645.628418,472.708008 651.316040,470.166016 658.095642,471.711670 &#xA;&#x9;C658.141602,474.533508 658.226501,477.355377 658.227173,480.177216 &#xA;&#x9;C658.231873,501.441711 658.178284,522.706360 658.282349,543.970337 &#xA;&#x9;C658.292114,545.960144 658.648132,549.070679 659.889832,549.751099 &#xA;&#x9;C668.426575,554.429199 677.242065,558.598572 686.324341,563.288757 &#xA;&#x9;C686.888245,563.239990 687.452087,563.191223 688.705994,562.931885 &#xA;&#x9;C695.575256,559.226624 702.377319,555.387939 709.343689,551.875366 &#xA;&#x9;C712.559265,550.254028 713.768982,548.224182 713.745544,544.523743 &#xA;&#x9;C713.586731,519.428833 713.702148,494.332214 713.661255,469.236267 &#xA;&#x9;C713.658691,467.676575 713.081360,466.117798 712.483459,464.016266 &#xA;&#x9;C710.995178,463.071747 709.548584,462.052307 708.011353,461.195679 &#xA;&#x9;C701.304504,457.458405 694.571350,453.768524 688.247192,449.476746 &#xA;&#x9;C695.293884,445.395172 702.241882,441.127411 709.432251,437.316803 &#xA;&#x9;C712.641174,435.616180 713.930298,433.684509 713.849304,429.982605 &#xA;&#x9;C713.591064,418.176544 714.023438,406.350098 713.559448,394.556335 &#xA;&#x9;C713.375916,389.891235 715.217285,387.863983 718.974243,385.869293 &#xA;&#x9;C733.801697,377.997009 748.509521,369.894775 763.134216,361.651642 &#xA;&#x9;C764.812256,360.705811 766.681702,358.389404 766.769287,356.624481 &#xA;&#x9;C767.172791,348.492401 767.008545,340.330292 766.942444,332.179840 &#xA;&#x9;C766.936035,331.392548 766.202942,330.611176 765.505005,329.260223 &#xA;&#x9;C764.824707,328.790192 764.177917,328.260223 763.459290,327.858795 &#xA;&#x9;C737.452209,313.331818 711.506958,298.692444 685.411438,284.325958 &#xA;&#x9;C630.153931,253.904694 574.760315,223.729645 519.603760,193.126923 &#xA;&#x9;C514.225281,190.142746 510.459412,190.704971 505.556000,193.420898 &#xA;&#x9;C467.122192,214.708969 428.548340,235.743927 390.072937,256.957184 &#xA;&#x9;C348.533173,279.859985 307.044739,302.856018 265.576599,325.888275 &#xA;&#x9;C263.827423,326.859772 262.509460,328.607758 260.386780,330.056244 &#xA;&#x9;C260.053284,330.966614 259.719757,331.877014 259.257111,333.481873 &#xA;&#x9;C259.286102,334.653473 259.315063,335.825104 259.167755,337.918762 &#xA;&#x9;C259.177124,344.136902 259.007782,350.364136 259.323395,356.566681 &#xA;&#x9;C259.400818,358.089050 261.061798,359.530853 262.469635,361.496613 &#xA;&#x9;C287.841370,375.462982 313.213135,389.429382 338.644592,403.405518 &#xA;&#x9;C338.644592,403.405518 338.695312,403.372437 339.124878,403.886566 &#xA;M213.928284,808.652954 &#xA;&#x9;C222.430649,805.881165 231.399139,804.061951 239.353333,800.169800 &#xA;&#x9;C270.910858,784.728027 274.460999,733.122375 244.310349,715.559326 &#xA;&#x9;C234.243820,709.695557 222.654648,706.401550 211.665939,702.181702 &#xA;&#x9;C205.003708,699.623352 198.028320,697.856201 191.442352,695.132263 &#xA;&#x9;C187.287048,693.413696 185.184280,689.682373 185.876389,684.942810 &#xA;&#x9;C186.571350,680.183655 189.681305,677.527649 194.183319,676.867493 &#xA;&#x9;C197.754501,676.343872 201.501068,676.072388 205.054611,676.548462 &#xA;&#x9;C215.929535,678.005188 225.098907,683.378906 233.767075,689.801758 &#xA;&#x9;C238.699295,693.456360 241.102524,692.866882 244.089218,687.496887 &#xA;&#x9;C248.703781,679.199829 253.079620,670.765625 257.865997,662.570251 &#xA;&#x9;C260.465607,658.119141 259.433258,655.271545 255.318710,652.650085 &#xA;&#x9;C231.439468,637.436096 205.620178,632.039673 177.907883,638.172180 &#xA;&#x9;C155.770020,643.071167 139.619293,661.978455 138.107147,683.440430 &#xA;&#x9;C136.267914,709.544861 146.114853,725.859741 170.172562,735.475159 &#xA;&#x9;C178.652527,738.864502 187.630859,740.986023 196.255859,744.041443 &#xA;&#x9;C201.235260,745.805481 206.366425,747.699280 210.638565,750.671326 &#xA;&#x9;C212.846680,752.207520 214.188553,756.168213 214.379852,759.132996 &#xA;&#x9;C214.633514,763.064148 211.806854,765.899780 207.981201,767.113464 &#xA;&#x9;C205.950974,767.757690 203.757355,768.097717 201.623627,768.170837 &#xA;&#x9;C186.308334,768.695862 173.487762,762.294800 161.726974,753.325256 &#xA;&#x9;C155.507706,748.582031 154.306854,748.711060 150.637787,755.773254 &#xA;&#x9;C146.644119,763.460327 142.607040,771.125061 138.561508,778.785034 &#xA;&#x9;C134.265305,786.919495 134.879791,788.534851 142.997986,793.364197 &#xA;&#x9;C164.659882,806.250244 188.040298,811.107727 213.928284,808.652954 &#xA;M653.164612,773.397400 &#xA;&#x9;C655.771729,779.527527 658.441284,785.632019 660.969604,791.794495 &#xA;&#x9;C663.893066,798.920227 660.346619,806.489319 652.725098,808.003296 &#xA;&#x9;C647.760071,808.989624 642.469910,808.935242 637.382812,808.563171 &#xA;&#x9;C630.767822,808.079285 629.365417,808.938232 629.317322,815.696655 &#xA;&#x9;C629.261597,823.527954 629.305603,831.360107 629.323914,839.191895 &#xA;&#x9;C629.340576,846.313232 630.392273,847.387085 637.693420,847.947449 &#xA;&#x9;C639.684814,848.100220 641.663940,848.420288 643.656006,848.554932 &#xA;&#x9;C659.266357,849.610779 674.295898,848.054199 687.529663,838.619385 &#xA;&#x9;C698.903320,830.510803 704.974670,818.600098 709.939819,806.178162 &#xA;&#x9;C725.205017,767.987183 740.124878,729.658325 755.226318,691.401733 &#xA;&#x9;C757.408691,685.872986 756.384277,684.115417 750.374329,684.104065 &#xA;&#x9;C738.376831,684.081299 726.375916,684.322083 714.383301,684.092712 &#xA;&#x9;C709.734497,684.003784 707.473083,685.757202 706.131531,690.137817 &#xA;&#x9;C702.428589,702.229675 698.399719,714.222595 694.431519,726.232056 &#xA;&#x9;C692.385986,732.422791 690.195251,738.565491 687.595398,746.106628 &#xA;&#x9;C686.385437,742.742432 685.696167,740.893738 685.053589,739.028931 &#xA;&#x9;C679.412476,722.656189 673.714233,706.302551 668.191528,689.889954 &#xA;&#x9;C666.848267,685.898010 664.829834,683.957703 660.276855,684.062378 &#xA;&#x9;C647.952576,684.345825 635.617188,684.109924 623.286682,684.176697 &#xA;&#x9;C617.685669,684.207031 616.278015,686.189087 618.413940,691.260925 &#xA;&#x9;C629.853577,718.425537 641.380859,745.553284 653.164612,773.397400 &#xA;M834.272095,681.104736 &#xA;&#x9;C833.277405,681.004822 832.278809,680.933838 831.288574,680.800781 &#xA;&#x9;C791.685303,675.481201 755.833618,699.991211 753.490845,739.475403 &#xA;&#x9;C752.221558,760.867676 758.837891,779.184448 775.453064,793.288757 &#xA;&#x9;C789.642700,805.333984 806.324890,809.720520 824.661804,809.082825 &#xA;&#x9;C875.630615,807.310059 902.395325,757.476685 881.621216,714.752197 &#xA;&#x9;C872.287598,695.556458 855.623718,685.469910 834.272095,681.104736 &#xA;M443.105164,800.430420 &#xA;&#x9;C444.444153,801.104431 445.760101,801.829529 447.125427,802.445068 &#xA;&#x9;C491.116943,822.275879 545.633606,797.327148 546.325134,745.877197 &#xA;&#x9;C546.596802,725.666992 539.793457,708.565369 524.183777,695.635498 &#xA;&#x9;C506.588562,681.060913 486.011261,677.576355 463.986053,681.572815 &#xA;&#x9;C447.114990,684.634033 433.118103,692.742676 422.751770,706.644775 &#xA;&#x9;C402.801941,733.399231 406.849030,779.640747 443.105164,800.430420 &#xA;z"></path>
<path fill="#FDFDFD" opacity="1.000000" stroke="none" d="&#xA;M260.990601,329.994019 &#xA;&#x9;C262.509460,328.607758 263.827423,326.859772 265.576599,325.888275 &#xA;&#x9;C307.044739,302.856018 348.533173,279.859985 390.072937,256.957184 &#xA;&#x9;C428.548340,235.743927 467.122192,214.708969 505.556000,193.420898 &#xA;&#x9;C510.459412,190.704971 514.225281,190.142746 519.603760,193.126923 &#xA;&#x9;C574.760315,223.729645 630.153931,253.904694 685.411438,284.325958 &#xA;&#x9;C711.506958,298.692444 737.452209,313.331818 763.459290,327.858795 &#xA;&#x9;C764.177917,328.260223 764.824707,328.790192 765.360779,329.711914 &#xA;&#x9;C740.459778,343.997101 715.719482,357.860504 690.910034,371.599091 &#xA;&#x9;C689.205566,372.542969 686.984314,372.553833 684.785034,372.734650 &#xA;&#x9;C629.632629,342.228516 574.681763,312.016693 519.797607,281.684326 &#xA;&#x9;C515.581177,279.354065 511.821716,278.935059 507.614441,281.352997 &#xA;&#x9;C501.989166,284.585876 496.212738,287.555450 490.582062,290.779327 &#xA;&#x9;C489.112030,291.621002 487.941681,292.986176 486.633667,294.110901 &#xA;&#x9;C487.973877,295.431763 489.098267,297.146210 490.685577,298.016327 &#xA;&#x9;C540.575134,325.364929 590.510132,352.630524 640.436646,379.911560 &#xA;&#x9;C646.037842,382.972229 651.629822,386.049774 657.624146,389.337799 &#xA;&#x9;C650.578674,393.413696 644.124390,397.147583 637.469482,400.881165 &#xA;&#x9;C637.268860,400.880890 637.001709,401.180176 636.661377,401.239197 &#xA;&#x9;C614.071106,413.606567 591.821228,425.914917 569.436218,438.231812 &#xA;&#x9;C569.301086,438.240417 569.168640,438.476593 568.856201,438.588867 &#xA;&#x9;C564.294312,441.079193 560.044861,443.457245 555.837036,445.873291 &#xA;&#x9;C555.878540,445.911346 555.859436,445.800354 555.505554,445.855286 &#xA;&#x9;C542.758301,452.725922 530.301880,459.430908 518.012329,466.428833 &#xA;&#x9;C514.592102,468.376373 511.971771,468.339691 508.488190,466.412628 &#xA;&#x9;C472.955078,446.756165 437.283295,427.350708 401.716888,407.754120 &#xA;&#x9;C354.776886,381.890778 307.896576,355.919098 260.990601,329.994019 &#xA;M479.698822,312.807831 &#xA;&#x9;C476.503540,311.030426 473.195038,309.426483 470.141235,307.432404 &#xA;&#x9;C466.184875,304.849030 462.536865,305.038086 458.488373,307.320923 &#xA;&#x9;C448.355530,313.034546 438.067108,318.471375 427.891235,324.109711 &#xA;&#x9;C423.533325,326.524353 423.358734,329.902832 427.566803,332.222229 &#xA;&#x9;C454.495178,347.064636 481.435974,361.886200 508.509308,376.460907 &#xA;&#x9;C510.660156,377.618805 514.386230,377.897614 516.457764,376.816772 &#xA;&#x9;C528.094482,370.745453 539.493347,364.210052 550.868103,357.650482 &#xA;&#x9;C553.869141,355.919861 554.078796,353.526276 550.838501,351.547943 &#xA;&#x9;C549.139771,350.510834 547.344116,349.632629 545.594543,348.678589 &#xA;&#x9;C523.852722,336.822815 502.111389,324.966339 479.698822,312.807831 &#xA;z"></path>
<path fill="#15242F" opacity="1.000000" stroke="none" d="&#xA;M637.001709,401.180176 &#xA;&#x9;C637.001709,401.180176 637.268860,400.880890 637.916016,400.909851 &#xA;&#x9;C641.387573,400.080750 644.319763,399.471191 647.010193,398.304199 &#xA;&#x9;C650.708069,396.700165 654.179993,393.380768 658.082764,398.460297 &#xA;&#x9;C658.121826,404.279602 658.065918,409.639832 657.641724,415.010132 &#xA;&#x9;C655.895325,415.848175 654.517212,416.676147 653.139160,417.504120 &#xA;&#x9;C653.346985,417.918854 653.554810,418.333588 653.762634,418.748322 &#xA;&#x9;C655.180847,418.831390 656.598999,418.914459 658.084290,419.258484 &#xA;&#x9;C658.109741,419.694244 658.068115,419.868988 657.706543,420.179626 &#xA;&#x9;C651.577087,423.407532 645.767639,426.499542 639.973938,429.583160 &#xA;&#x9;C646.287231,441.469208 652.343201,452.870972 658.375977,464.553284 &#xA;&#x9;C658.378784,465.207886 658.404968,465.581909 658.290527,466.328064 &#xA;&#x9;C658.229370,467.479279 658.308777,468.258331 658.330688,469.328857 &#xA;&#x9;C658.151917,469.995941 658.030640,470.371521 657.909302,470.747131 &#xA;&#x9;C651.316040,470.166016 645.628418,472.708008 641.045593,476.947845 &#xA;&#x9;C628.717163,488.353546 616.507507,499.906830 604.658936,511.807892 &#xA;&#x9;C580.364685,536.209778 554.817322,558.924377 523.732727,574.521362 &#xA;&#x9;C520.485352,576.150757 517.093262,577.491760 513.473816,578.513550 &#xA;&#x9;C512.236755,573.026062 511.973785,567.743652 510.242035,562.997009 &#xA;&#x9;C498.456848,530.694092 476.897552,506.193390 448.545227,487.398468 &#xA;&#x9;C428.767334,474.287598 406.886505,468.277435 383.194519,470.111023 &#xA;&#x9;C370.703644,471.077667 358.358124,473.290985 349.095123,483.123138 &#xA;&#x9;C350.408752,466.714539 356.085449,451.551117 362.432983,436.589386 &#xA;&#x9;C364.622070,431.429535 366.984863,426.343353 369.475647,420.758575 &#xA;&#x9;C363.604279,417.443726 357.902771,414.224731 352.194214,410.465332 &#xA;&#x9;C354.229004,410.265656 356.384064,410.304443 358.286133,411.017853 &#xA;&#x9;C361.143494,412.089630 363.755524,413.823547 366.623535,414.853546 &#xA;&#x9;C367.408539,415.135468 368.735229,413.908813 369.813354,413.374451 &#xA;&#x9;C369.208740,412.315613 368.857635,410.738770 367.951813,410.295471 &#xA;&#x9;C365.280579,408.988251 362.369507,408.181000 359.589630,407.083466 &#xA;&#x9;C355.750519,405.567657 351.945557,403.965393 347.183685,402.014038 &#xA;&#x9;C349.919464,400.360046 351.552551,399.584045 352.927795,398.485321 &#xA;&#x9;C354.479553,397.245483 355.720612,395.623260 357.234406,394.328186 &#xA;&#x9;C362.215424,390.066925 366.310913,390.221832 371.361298,394.519745 &#xA;&#x9;C372.972534,395.890900 375.082306,396.682587 376.667786,398.076355 &#xA;&#x9;C379.902252,400.919678 385.221832,401.416504 386.365448,406.708527 &#xA;&#x9;C386.491150,407.290100 387.887970,407.728149 388.767456,407.993134 &#xA;&#x9;C392.720398,409.184174 396.699402,410.288666 400.669006,411.424408 &#xA;&#x9;C400.612122,411.995453 400.555267,412.566528 400.498383,413.137573 &#xA;&#x9;C398.997345,413.137573 397.485565,413.252258 395.997589,413.112793 &#xA;&#x9;C393.213989,412.851868 390.422943,412.095337 387.678772,412.262756 &#xA;&#x9;C386.533081,412.332642 385.499237,414.236633 384.414520,415.306671 &#xA;&#x9;C385.612885,416.200775 386.690613,417.569122 388.029785,417.909882 &#xA;&#x9;C395.234772,419.743164 402.953308,416.344666 410.037933,419.965851 &#xA;&#x9;C410.434937,420.168762 411.023560,420.006256 411.522705,419.998322 &#xA;&#x9;C416.266113,419.922913 420.304230,421.130157 423.670410,424.925507 &#xA;&#x9;C425.027618,426.455780 427.761749,427.085541 429.981232,427.458130 &#xA;&#x9;C433.672058,428.077637 436.724915,428.881958 438.889587,432.581543 &#xA;&#x9;C440.859558,435.948364 442.607117,440.089844 448.207611,439.625000 &#xA;&#x9;C450.471222,439.437103 452.928986,441.588287 455.298401,442.675049 &#xA;&#x9;C454.322235,444.455048 453.328796,446.226013 452.390167,448.025574 &#xA;&#x9;C452.262207,448.270844 452.408051,448.658966 452.479523,449.866028 &#xA;&#x9;C454.332214,449.586456 456.204681,449.583130 457.874664,449.000000 &#xA;&#x9;C463.092133,447.178101 467.958008,445.868256 472.375458,451.025787 &#xA;&#x9;C473.574310,452.425507 476.278595,452.852875 478.367188,453.106140 &#xA;&#x9;C482.440063,453.599976 486.803711,456.971161 487.246124,460.633759 &#xA;&#x9;C486.049988,461.048096 484.675140,461.276276 483.595581,461.966400 &#xA;&#x9;C482.463501,462.690094 481.614624,463.856842 480.641998,464.829956 &#xA;&#x9;C482.201691,465.459198 483.779633,466.605560 485.315247,466.551453 &#xA;&#x9;C486.508850,466.509369 487.536133,464.691162 488.840057,464.161163 &#xA;&#x9;C490.889954,463.328003 493.596558,461.844025 495.154846,462.551758 &#xA;&#x9;C498.163147,463.918060 500.387299,466.912140 503.277222,468.671814 &#xA;&#x9;C505.291931,469.898560 507.835114,470.496033 510.215881,470.802704 &#xA;&#x9;C511.930145,471.023468 513.762085,470.077301 515.548096,470.047882 &#xA;&#x9;C519.053223,469.990173 522.681213,470.579071 523.898682,465.854340 &#xA;&#x9;C524.071838,465.182495 525.386292,464.539520 526.269775,464.358795 &#xA;&#x9;C532.226074,463.140533 538.606140,462.921173 542.072205,456.554779 &#xA;&#x9;C542.425720,455.905457 543.790161,455.853180 544.623962,455.408569 &#xA;&#x9;C546.129761,454.605621 547.667358,453.824188 549.044800,452.830170 &#xA;&#x9;C550.324341,451.906860 551.471252,450.774536 552.568420,449.630493 &#xA;&#x9;C553.731812,448.417450 554.767822,447.082245 555.859436,445.800354 &#xA;&#x9;C555.859436,445.800354 555.878540,445.911346 556.254150,445.915527 &#xA;&#x9;C559.171143,446.410675 561.712402,446.901672 564.949219,447.527069 &#xA;&#x9;C566.302490,444.624329 567.735596,441.550476 569.168640,438.476593 &#xA;&#x9;C569.168640,438.476593 569.301086,438.240417 569.828491,438.382690 &#xA;&#x9;C579.738281,437.906891 586.525208,431.679413 595.633301,427.834198 &#xA;&#x9;C596.242432,428.261505 598.858704,429.110229 599.497437,430.735901 &#xA;&#x9;C601.181091,435.021454 604.429382,434.121796 607.398865,433.725372 &#xA;&#x9;C608.344360,433.599091 609.775696,431.664764 609.674622,430.694183 &#xA;&#x9;C609.575500,429.742035 607.922913,428.533875 606.745789,428.225494 &#xA;&#x9;C605.488098,427.895996 603.989136,428.487427 602.247437,428.724182 &#xA;&#x9;C602.323669,427.406769 602.073303,426.173859 602.460876,425.921692 &#xA;&#x9;C605.339050,424.049377 608.350891,422.383667 611.306641,420.629242 &#xA;&#x9;C613.534485,419.306824 615.840942,418.087280 617.936279,416.577545 &#xA;&#x9;C621.983398,413.661407 625.681702,410.176971 629.983459,407.737061 &#xA;&#x9;C631.883118,406.659576 634.902161,407.555481 637.429749,407.555481 &#xA;&#x9;C637.267090,405.132446 637.134399,403.156311 637.001709,401.180176 &#xA;z"></path>
<path fill="#FCFDFE" opacity="1.000000" stroke="none" d="&#xA;M213.477661,808.713257 &#xA;&#x9;C188.040298,811.107727 164.659882,806.250244 142.997986,793.364197 &#xA;&#x9;C134.879791,788.534851 134.265305,786.919495 138.561508,778.785034 &#xA;&#x9;C142.607040,771.125061 146.644119,763.460327 150.637787,755.773254 &#xA;&#x9;C154.306854,748.711060 155.507706,748.582031 161.726974,753.325256 &#xA;&#x9;C173.487762,762.294800 186.308334,768.695862 201.623627,768.170837 &#xA;&#x9;C203.757355,768.097717 205.950974,767.757690 207.981201,767.113464 &#xA;&#x9;C211.806854,765.899780 214.633514,763.064148 214.379852,759.132996 &#xA;&#x9;C214.188553,756.168213 212.846680,752.207520 210.638565,750.671326 &#xA;&#x9;C206.366425,747.699280 201.235260,745.805481 196.255859,744.041443 &#xA;&#x9;C187.630859,740.986023 178.652527,738.864502 170.172562,735.475159 &#xA;&#x9;C146.114853,725.859741 136.267914,709.544861 138.107147,683.440430 &#xA;&#x9;C139.619293,661.978455 155.770020,643.071167 177.907883,638.172180 &#xA;&#x9;C205.620178,632.039673 231.439468,637.436096 255.318710,652.650085 &#xA;&#x9;C259.433258,655.271545 260.465607,658.119141 257.865997,662.570251 &#xA;&#x9;C253.079620,670.765625 248.703781,679.199829 244.089218,687.496887 &#xA;&#x9;C241.102524,692.866882 238.699295,693.456360 233.767075,689.801758 &#xA;&#x9;C225.098907,683.378906 215.929535,678.005188 205.054611,676.548462 &#xA;&#x9;C201.501068,676.072388 197.754501,676.343872 194.183319,676.867493 &#xA;&#x9;C189.681305,677.527649 186.571350,680.183655 185.876389,684.942810 &#xA;&#x9;C185.184280,689.682373 187.287048,693.413696 191.442352,695.132263 &#xA;&#x9;C198.028320,697.856201 205.003708,699.623352 211.665939,702.181702 &#xA;&#x9;C222.654648,706.401550 234.243820,709.695557 244.310349,715.559326 &#xA;&#x9;C274.460999,733.122375 270.910858,784.728027 239.353333,800.169800 &#xA;&#x9;C231.399139,804.061951 222.430649,805.881165 213.477661,808.713257 &#xA;z"></path>
<path fill="#FBFDFD" opacity="1.000000" stroke="none" d="&#xA;M653.021240,773.045593 &#xA;&#x9;C641.380859,745.553284 629.853577,718.425537 618.413940,691.260925 &#xA;&#x9;C616.278015,686.189087 617.685669,684.207031 623.286682,684.176697 &#xA;&#x9;C635.617188,684.109924 647.952576,684.345825 660.276855,684.062378 &#xA;&#x9;C664.829834,683.957703 666.848267,685.898010 668.191528,689.889954 &#xA;&#x9;C673.714233,706.302551 679.412476,722.656189 685.053589,739.028931 &#xA;&#x9;C685.696167,740.893738 686.385437,742.742432 687.595398,746.106628 &#xA;&#x9;C690.195251,738.565491 692.385986,732.422791 694.431519,726.232056 &#xA;&#x9;C698.399719,714.222595 702.428589,702.229675 706.131531,690.137817 &#xA;&#x9;C707.473083,685.757202 709.734497,684.003784 714.383301,684.092712 &#xA;&#x9;C726.375916,684.322083 738.376831,684.081299 750.374329,684.104065 &#xA;&#x9;C756.384277,684.115417 757.408691,685.872986 755.226318,691.401733 &#xA;&#x9;C740.124878,729.658325 725.205017,767.987183 709.939819,806.178162 &#xA;&#x9;C704.974670,818.600098 698.903320,830.510803 687.529663,838.619385 &#xA;&#x9;C674.295898,848.054199 659.266357,849.610779 643.656006,848.554932 &#xA;&#x9;C641.663940,848.420288 639.684814,848.100220 637.693420,847.947449 &#xA;&#x9;C630.392273,847.387085 629.340576,846.313232 629.323914,839.191895 &#xA;&#x9;C629.305603,831.360107 629.261597,823.527954 629.317322,815.696655 &#xA;&#x9;C629.365417,808.938232 630.767822,808.079285 637.382812,808.563171 &#xA;&#x9;C642.469910,808.935242 647.760071,808.989624 652.725098,808.003296 &#xA;&#x9;C660.346619,806.489319 663.893066,798.920227 660.969604,791.794495 &#xA;&#x9;C658.441284,785.632019 655.771729,779.527527 653.021240,773.045593 &#xA;z"></path>
<path fill="#FCFDFE" opacity="1.000000" stroke="none" d="&#xA;M834.701782,681.154602 &#xA;&#x9;C855.623718,685.469910 872.287598,695.556458 881.621216,714.752197 &#xA;&#x9;C902.395325,757.476685 875.630615,807.310059 824.661804,809.082825 &#xA;&#x9;C806.324890,809.720520 789.642700,805.333984 775.453064,793.288757 &#xA;&#x9;C758.837891,779.184448 752.221558,760.867676 753.490845,739.475403 &#xA;&#x9;C755.833618,699.991211 791.685303,675.481201 831.288574,680.800781 &#xA;&#x9;C832.278809,680.933838 833.277405,681.004822 834.701782,681.154602 &#xA;M833.552185,764.176758 &#xA;&#x9;C839.017029,760.453003 841.655212,754.977905 842.709717,748.716125 &#xA;&#x9;C845.646301,731.277893 830.184753,717.409241 814.298706,722.780273 &#xA;&#x9;C799.271606,727.860901 797.125916,744.473572 801.796326,755.502075 &#xA;&#x9;C806.927368,767.618286 820.177490,771.391663 833.552185,764.176758 &#xA;z"></path>
<path fill="#FCFDFE" opacity="1.000000" stroke="none" d="&#xA;M442.793213,800.235352 &#xA;&#x9;C406.849030,779.640747 402.801941,733.399231 422.751770,706.644775 &#xA;&#x9;C433.118103,692.742676 447.114990,684.634033 463.986053,681.572815 &#xA;&#x9;C486.011261,677.576355 506.588562,681.060913 524.183777,695.635498 &#xA;&#x9;C539.793457,708.565369 546.596802,725.666992 546.325134,745.877197 &#xA;&#x9;C545.633606,797.327148 491.116943,822.275879 447.125427,802.445068 &#xA;&#x9;C445.760101,801.829529 444.444153,801.104431 442.793213,800.235352 &#xA;M471.775543,767.045349 &#xA;&#x9;C482.632843,769.682312 492.007812,766.252502 497.007629,757.814148 &#xA;&#x9;C502.142700,749.147522 501.190826,735.473877 494.978394,728.663635 &#xA;&#x9;C488.642731,721.718323 477.649933,719.600037 468.748352,723.825745 &#xA;&#x9;C459.373657,728.276184 456.547791,736.335754 456.794098,746.071228 &#xA;&#x9;C457.047974,756.108765 461.474762,763.185791 471.775543,767.045349 &#xA;z"></path>
<path fill="#FCFDFD" opacity="1.000000" stroke="none" d="&#xA;M349.129089,483.517456 &#xA;&#x9;C358.358124,473.290985 370.703644,471.077667 383.194519,470.111023 &#xA;&#x9;C406.886505,468.277435 428.767334,474.287598 448.545227,487.398468 &#xA;&#x9;C476.897552,506.193390 498.456848,530.694092 510.242035,562.997009 &#xA;&#x9;C511.973785,567.743652 512.236755,573.026062 513.099609,578.489502 &#xA;&#x9;C493.930786,587.218445 474.673035,584.289612 455.906891,578.521851 &#xA;&#x9;C418.185211,566.928162 386.330322,546.331787 362.836975,514.054138 &#xA;&#x9;C356.260651,505.018860 350.894287,495.239685 349.129089,483.517456 &#xA;z"></path>
<path fill="#FCFEFE" opacity="1.000000" stroke="none" d="&#xA;M565.963379,638.400024 &#xA;&#x9;C566.427551,638.458923 566.891724,638.517761 568.146973,638.622314 &#xA;&#x9;C579.426392,638.731873 589.915161,638.763733 600.403137,638.872986 &#xA;&#x9;C605.903748,638.930237 607.258850,640.224182 607.262756,645.649292 &#xA;&#x9;C607.299316,696.435242 607.310364,747.221191 607.285583,798.007141 &#xA;&#x9;C607.282715,803.860352 605.658630,805.460144 599.860229,805.492004 &#xA;&#x9;C589.537292,805.548706 579.213806,805.478760 568.890503,805.484924 &#xA;&#x9;C560.833008,805.489685 559.924805,804.653931 559.923340,796.692932 &#xA;&#x9;C559.914001,746.739075 559.910156,696.785278 559.968933,646.831482 &#xA;&#x9;C559.971680,644.546692 560.593994,642.262756 560.927673,639.978394 &#xA;&#x9;C560.927673,639.978394 560.995422,639.979065 561.342102,639.847473 &#xA;&#x9;C563.113647,639.277222 564.538513,638.838623 565.963379,638.400024 &#xA;z"></path>
<path fill="#162731" opacity="1.000000" stroke="none" d="&#xA;M685.003357,372.998596 &#xA;&#x9;C686.984314,372.553833 689.205566,372.542969 690.910034,371.599091 &#xA;&#x9;C715.719482,357.860504 740.459778,343.997101 765.511841,329.995300 &#xA;&#x9;C766.202942,330.611176 766.936035,331.392548 766.942444,332.179840 &#xA;&#x9;C767.008545,340.330292 767.172791,348.492401 766.769287,356.624481 &#xA;&#x9;C766.681702,358.389404 764.812256,360.705811 763.134216,361.651642 &#xA;&#x9;C748.509521,369.894775 733.801697,377.997009 718.974243,385.869293 &#xA;&#x9;C715.217285,387.863983 713.375916,389.891235 713.559448,394.556335 &#xA;&#x9;C714.023438,406.350098 713.591064,418.176544 713.849304,429.982605 &#xA;&#x9;C713.930298,433.684509 712.641174,435.616180 709.432251,437.316803 &#xA;&#x9;C702.241882,441.127411 695.293884,445.395172 687.774414,449.722504 &#xA;&#x9;C686.933716,449.932831 686.565918,449.897400 686.251465,449.530518 &#xA;&#x9;C686.445129,448.101288 686.585388,447.003479 687.050903,445.645294 &#xA;&#x9;C687.574280,444.762115 687.942993,444.139893 687.945129,443.516418 &#xA;&#x9;C687.987244,431.032104 688.016479,418.547424 687.941833,406.063507 &#xA;&#x9;C687.935547,405.028381 687.168274,403.997803 686.632751,402.566345 &#xA;&#x9;C686.595093,400.790588 686.679199,399.413635 687.074097,397.748871 &#xA;&#x9;C687.196960,392.298889 687.009094,387.136688 686.708008,381.574829 &#xA;&#x9;C686.411194,379.028870 686.227600,376.882538 685.893677,374.582825 &#xA;&#x9;C685.524231,374.240173 685.278870,374.095215 685.006104,373.745544 &#xA;&#x9;C685.004822,373.496552 685.003357,372.998566 685.003357,372.998596 &#xA;z"></path>
<path fill="#FAFCFD" opacity="1.000000" stroke="none" d="&#xA;M686.198059,449.861938 &#xA;&#x9;C686.565918,449.897400 686.933716,449.932831 687.574707,450.014832 &#xA;&#x9;C694.571350,453.768524 701.304504,457.458405 708.011353,461.195679 &#xA;&#x9;C709.548584,462.052307 710.995178,463.071747 712.298218,464.419250 &#xA;&#x9;C708.088745,466.957581 704.064514,469.092896 699.699951,471.296021 &#xA;&#x9;C696.881531,472.702179 694.527710,474.405640 691.898743,475.300690 &#xA;&#x9;C686.886047,477.007294 686.112854,480.411346 686.137939,485.239746 &#xA;&#x9;C686.272827,511.136078 686.060364,537.034180 685.967834,562.931702 &#xA;&#x9;C677.242065,558.598572 668.426575,554.429199 659.889832,549.751099 &#xA;&#x9;C658.648132,549.070679 658.292114,545.960144 658.282349,543.970337 &#xA;&#x9;C658.178284,522.706360 658.231873,501.441711 658.227173,480.177216 &#xA;&#x9;C658.226501,477.355377 658.141602,474.533508 658.002441,471.229401 &#xA;&#x9;C658.030640,470.371521 658.151917,469.995941 658.519165,469.119019 &#xA;&#x9;C658.653748,467.730469 658.542419,466.843231 658.431091,465.955963 &#xA;&#x9;C658.404968,465.581909 658.378784,465.207886 658.730469,464.512787 &#xA;&#x9;C668.086914,459.458527 677.065491,454.725311 686.079956,449.956512 &#xA;&#x9;C686.115906,449.920929 686.198059,449.861938 686.198059,449.861938 &#xA;z"></path>
<path fill="#17242E" opacity="1.000000" stroke="none" d="&#xA;M555.505554,445.855286 &#xA;&#x9;C554.767822,447.082245 553.731812,448.417450 552.568420,449.630493 &#xA;&#x9;C551.471252,450.774536 550.324341,451.906860 549.044800,452.830170 &#xA;&#x9;C547.667358,453.824188 546.129761,454.605621 544.623962,455.408569 &#xA;&#x9;C543.790161,455.853180 542.425720,455.905457 542.072205,456.554779 &#xA;&#x9;C538.606140,462.921173 532.226074,463.140533 526.269775,464.358795 &#xA;&#x9;C525.386292,464.539520 524.071838,465.182495 523.898682,465.854340 &#xA;&#x9;C522.681213,470.579071 519.053223,469.990173 515.548096,470.047882 &#xA;&#x9;C513.762085,470.077301 511.930145,471.023468 510.215881,470.802704 &#xA;&#x9;C507.835114,470.496033 505.291931,469.898560 503.277222,468.671814 &#xA;&#x9;C500.387299,466.912140 498.163147,463.918060 495.154846,462.551758 &#xA;&#x9;C493.596558,461.844025 490.889954,463.328003 488.840057,464.161163 &#xA;&#x9;C487.536133,464.691162 486.508850,466.509369 485.315247,466.551453 &#xA;&#x9;C483.779633,466.605560 482.201691,465.459198 480.641998,464.829956 &#xA;&#x9;C481.614624,463.856842 482.463501,462.690094 483.595581,461.966400 &#xA;&#x9;C484.675140,461.276276 486.049988,461.048096 487.246124,460.633759 &#xA;&#x9;C486.803711,456.971161 482.440063,453.599976 478.367188,453.106140 &#xA;&#x9;C476.278595,452.852875 473.574310,452.425507 472.375458,451.025787 &#xA;&#x9;C467.958008,445.868256 463.092133,447.178101 457.874664,449.000000 &#xA;&#x9;C456.204681,449.583130 454.332214,449.586456 452.479523,449.866028 &#xA;&#x9;C452.408051,448.658966 452.262207,448.270844 452.390167,448.025574 &#xA;&#x9;C453.328796,446.226013 454.322235,444.455048 455.298401,442.675049 &#xA;&#x9;C452.928986,441.588287 450.471222,439.437103 448.207611,439.625000 &#xA;&#x9;C442.607117,440.089844 440.859558,435.948364 438.889587,432.581543 &#xA;&#x9;C436.724915,428.881958 433.672058,428.077637 429.981232,427.458130 &#xA;&#x9;C427.761749,427.085541 425.027618,426.455780 423.670410,424.925507 &#xA;&#x9;C420.304230,421.130157 416.266113,419.922913 411.522705,419.998322 &#xA;&#x9;C411.023560,420.006256 410.434937,420.168762 410.037933,419.965851 &#xA;&#x9;C402.953308,416.344666 395.234772,419.743164 388.029785,417.909882 &#xA;&#x9;C386.690613,417.569122 385.612885,416.200775 384.414520,415.306671 &#xA;&#x9;C385.499237,414.236633 386.533081,412.332642 387.678772,412.262756 &#xA;&#x9;C390.422943,412.095337 393.213989,412.851868 395.997589,413.112793 &#xA;&#x9;C397.485565,413.252258 398.997345,413.137573 400.498383,413.137573 &#xA;&#x9;C400.555267,412.566528 400.612122,411.995453 400.669006,411.424408 &#xA;&#x9;C396.699402,410.288666 392.720398,409.184174 388.767456,407.993134 &#xA;&#x9;C387.887970,407.728149 386.491150,407.290100 386.365448,406.708527 &#xA;&#x9;C385.221832,401.416504 379.902252,400.919678 376.667786,398.076355 &#xA;&#x9;C375.082306,396.682587 372.972534,395.890900 371.361298,394.519745 &#xA;&#x9;C366.310913,390.221832 362.215424,390.066925 357.234406,394.328186 &#xA;&#x9;C355.720612,395.623260 354.479553,397.245483 352.927795,398.485321 &#xA;&#x9;C351.552551,399.584045 349.919464,400.360046 347.183685,402.014038 &#xA;&#x9;C351.945557,403.965393 355.750519,405.567657 359.589630,407.083466 &#xA;&#x9;C362.369507,408.181000 365.280579,408.988251 367.951813,410.295471 &#xA;&#x9;C368.857635,410.738770 369.208740,412.315613 369.813354,413.374451 &#xA;&#x9;C368.735229,413.908813 367.408539,415.135468 366.623535,414.853546 &#xA;&#x9;C363.755524,413.823547 361.143494,412.089630 358.286133,411.017853 &#xA;&#x9;C356.384064,410.304443 354.229004,410.265656 351.948303,410.249512 &#xA;&#x9;C351.709473,410.574127 351.290131,410.437408 351.099701,409.914429 &#xA;&#x9;C347.959076,405.110107 344.209045,402.451813 338.695312,403.372437 &#xA;&#x9;C338.695312,403.372437 338.644592,403.405518 338.762329,403.028931 &#xA;&#x9;C342.922180,398.868011 344.998047,394.396790 344.183777,388.700531 &#xA;&#x9;C344.055328,387.801849 345.496643,386.771301 345.672272,385.712189 &#xA;&#x9;C345.873169,384.500366 345.950165,382.613586 345.243713,382.024963 &#xA;&#x9;C342.848053,380.028870 340.247040,378.075256 337.395996,376.907013 &#xA;&#x9;C335.719543,376.220062 333.317047,376.704773 331.426270,377.275726 &#xA;&#x9;C328.254456,378.233490 325.310547,380.163391 322.106567,380.695190 &#xA;&#x9;C320.738495,380.922241 318.215546,378.961823 317.598969,377.436829 &#xA;&#x9;C317.105835,376.217072 318.476715,374.006500 319.442535,372.507782 &#xA;&#x9;C320.240997,371.268738 321.717896,370.481262 322.721344,369.341553 &#xA;&#x9;C322.845551,369.200531 321.914856,367.579224 321.458527,367.572113 &#xA;&#x9;C319.250244,367.537750 315.313965,367.321899 315.097595,368.069580 &#xA;&#x9;C313.333069,374.167419 308.859741,372.392578 305.001709,371.901398 &#xA;&#x9;C303.332367,371.688873 301.799805,370.402100 300.205078,369.603271 &#xA;&#x9;C301.548737,368.330139 302.800049,366.932770 304.275024,365.836304 &#xA;&#x9;C305.012756,365.287964 306.260620,365.469940 307.096863,364.999817 &#xA;&#x9;C308.414948,364.258789 309.580505,363.246521 310.810669,362.349091 &#xA;&#x9;C309.351959,361.241638 308.033386,359.727997 306.388428,359.160339 &#xA;&#x9;C305.158813,358.736023 303.509979,359.544189 302.044373,359.782288 &#xA;&#x9;C299.387421,360.213989 297.454041,360.280060 296.752808,356.577911 &#xA;&#x9;C295.923248,352.198242 292.575439,350.786560 288.093933,352.097900 &#xA;&#x9;C287.743469,350.756958 287.395905,349.427216 287.150360,348.487762 &#xA;&#x9;C279.817535,346.712006 273.464722,344.388855 269.820770,337.141663 &#xA;&#x9;C268.887848,346.058105 270.226776,355.137726 261.994751,361.009674 &#xA;&#x9;C261.061798,359.530853 259.400818,358.089050 259.323395,356.566681 &#xA;&#x9;C259.007782,350.364136 259.177124,344.136902 259.574493,337.334961 &#xA;&#x9;C259.782898,335.429901 259.584564,334.108643 259.386230,332.787384 &#xA;&#x9;C259.719757,331.877014 260.053284,330.966614 260.688690,330.025116 &#xA;&#x9;C307.896576,355.919098 354.776886,381.890778 401.716888,407.754120 &#xA;&#x9;C437.283295,427.350708 472.955078,446.756165 508.488190,466.412628 &#xA;&#x9;C511.971771,468.339691 514.592102,468.376373 518.012329,466.428833 &#xA;&#x9;C530.301880,459.430908 542.758301,452.725922 555.505554,445.855286 &#xA;M263.000000,342.658875 &#xA;&#x9;C263.000000,345.825378 263.000000,348.991852 263.000000,352.158356 &#xA;&#x9;C263.430786,352.121765 263.861542,352.085144 264.292328,352.048553 &#xA;&#x9;C264.292328,346.994568 264.292328,341.940582 264.292328,336.886566 &#xA;&#x9;C263.861542,336.906586 263.430786,336.926605 263.000000,336.946625 &#xA;&#x9;C263.000000,338.547211 263.000000,340.147827 263.000000,342.658875 &#xA;M355.472565,388.253113 &#xA;&#x9;C355.195221,388.059387 354.917908,387.865631 354.640564,387.671906 &#xA;&#x9;C354.818542,387.959686 354.996521,388.247498 355.472565,388.253113 &#xA;z"></path>
<path fill="#162731" opacity="1.000000" stroke="none" d="&#xA;M700.040283,471.228271 &#xA;&#x9;C704.064514,469.092896 708.088745,466.957581 712.442200,464.690430 &#xA;&#x9;C713.081360,466.117798 713.658691,467.676575 713.661255,469.236267 &#xA;&#x9;C713.702148,494.332214 713.586731,519.428833 713.745544,544.523743 &#xA;&#x9;C713.768982,548.224182 712.559265,550.254028 709.343689,551.875366 &#xA;&#x9;C702.377319,555.387939 695.575256,559.226624 688.300171,562.562012 &#xA;&#x9;C687.868896,537.135559 688.030090,512.076355 687.689209,487.024078 &#xA;&#x9;C687.601685,480.589996 690.409546,477.272552 695.808838,474.929932 &#xA;&#x9;C697.446411,474.219452 698.642151,472.490662 700.040283,471.228271 &#xA;z"></path>
<path fill="#15242F" opacity="1.000000" stroke="none" d="&#xA;M262.232178,361.253143 &#xA;&#x9;C270.226776,355.137726 268.887848,346.058105 269.820770,337.141663 &#xA;&#x9;C273.464722,344.388855 279.817535,346.712006 287.150360,348.487762 &#xA;&#x9;C287.395905,349.427216 287.743469,350.756958 288.093933,352.097900 &#xA;&#x9;C292.575439,350.786560 295.923248,352.198242 296.752808,356.577911 &#xA;&#x9;C297.454041,360.280060 299.387421,360.213989 302.044373,359.782288 &#xA;&#x9;C303.509979,359.544189 305.158813,358.736023 306.388428,359.160339 &#xA;&#x9;C308.033386,359.727997 309.351959,361.241638 310.810669,362.349091 &#xA;&#x9;C309.580505,363.246521 308.414948,364.258789 307.096863,364.999817 &#xA;&#x9;C306.260620,365.469940 305.012756,365.287964 304.275024,365.836304 &#xA;&#x9;C302.800049,366.932770 301.548737,368.330139 300.205078,369.603271 &#xA;&#x9;C301.799805,370.402100 303.332367,371.688873 305.001709,371.901398 &#xA;&#x9;C308.859741,372.392578 313.333069,374.167419 315.097595,368.069580 &#xA;&#x9;C315.313965,367.321899 319.250244,367.537750 321.458527,367.572113 &#xA;&#x9;C321.914856,367.579224 322.845551,369.200531 322.721344,369.341553 &#xA;&#x9;C321.717896,370.481262 320.240997,371.268738 319.442535,372.507782 &#xA;&#x9;C318.476715,374.006500 317.105835,376.217072 317.598969,377.436829 &#xA;&#x9;C318.215546,378.961823 320.738495,380.922241 322.106567,380.695190 &#xA;&#x9;C325.310547,380.163391 328.254456,378.233490 331.426270,377.275726 &#xA;&#x9;C333.317047,376.704773 335.719543,376.220062 337.395996,376.907013 &#xA;&#x9;C340.247040,378.075256 342.848053,380.028870 345.243713,382.024963 &#xA;&#x9;C345.950165,382.613586 345.873169,384.500366 345.672272,385.712189 &#xA;&#x9;C345.496643,386.771301 344.055328,387.801849 344.183777,388.700531 &#xA;&#x9;C344.998047,394.396790 342.922180,398.868011 338.732483,403.024078 &#xA;&#x9;C313.213135,389.429382 287.841370,375.462982 262.232178,361.253143 &#xA;z"></path>
<path fill="#7CB5DC" opacity="1.000000" stroke="none" d="&#xA;M560.549805,640.060974 &#xA;&#x9;C560.593994,642.262756 559.971680,644.546692 559.968933,646.831482 &#xA;&#x9;C559.910156,696.785278 559.914001,746.739075 559.923340,796.692932 &#xA;&#x9;C559.924805,804.653931 560.833008,805.489685 568.890503,805.484924 &#xA;&#x9;C579.213806,805.478760 589.537292,805.548706 599.860229,805.492004 &#xA;&#x9;C605.658630,805.460144 607.282715,803.860352 607.285583,798.007141 &#xA;&#x9;C607.310364,747.221191 607.299316,696.435242 607.262756,645.649292 &#xA;&#x9;C607.258850,640.224182 605.903748,638.930237 600.403137,638.872986 &#xA;&#x9;C589.915161,638.763733 579.426392,638.731873 568.489746,638.534790 &#xA;&#x9;C569.350403,637.934570 570.654663,637.078308 571.968933,637.062744 &#xA;&#x9;C581.625854,636.947754 591.288147,636.844971 600.941956,637.053162 &#xA;&#x9;C607.940430,637.204102 609.358459,639.366028 609.099182,645.354919 &#xA;&#x9;C608.717896,654.164062 608.664917,663.017761 609.077881,671.824097 &#xA;&#x9;C609.729431,685.716003 608.645935,699.579468 608.935791,713.463806 &#xA;&#x9;C609.227661,727.445557 608.999878,741.438232 609.000061,755.426086 &#xA;&#x9;C609.000305,769.580505 609.017639,783.734863 608.994629,797.889282 &#xA;&#x9;C608.982056,805.609192 606.552917,808.125671 598.908447,807.972412 &#xA;&#x9;C587.692261,807.747620 576.480286,807.131897 565.265503,807.104431 &#xA;&#x9;C560.723450,807.093323 558.984924,804.833374 558.244934,801.020508 &#xA;&#x9;C557.994141,799.728333 558.009338,798.372253 558.009033,797.045410 &#xA;&#x9;C557.998413,746.589111 557.977051,696.132812 558.091614,645.676758 &#xA;&#x9;C558.095825,643.830811 559.447937,641.987915 560.549805,640.060974 &#xA;z"></path>
<path fill="#7CB5DC" opacity="1.000000" stroke="none" d="&#xA;M336.974976,769.031799 &#xA;&#x9;C334.404114,766.180542 331.833221,763.329224 329.001221,760.188354 &#xA;&#x9;C329.001221,772.988403 329.002930,785.725647 329.000610,798.462891 &#xA;&#x9;C328.999176,806.404358 327.107635,807.484070 319.250397,807.232300 &#xA;&#x9;C307.970337,806.870789 296.653351,807.363342 285.362671,807.778442 &#xA;&#x9;C280.762878,807.947510 279.276672,805.069153 278.194641,801.636414 &#xA;&#x9;C277.761383,800.261841 278.005646,798.661743 278.005463,797.164307 &#xA;&#x9;C277.998840,747.015137 277.997437,696.865906 278.002655,646.716736 &#xA;&#x9;C278.003479,639.051697 281.561157,636.371033 289.199890,636.734985 &#xA;&#x9;C299.672211,637.234009 310.181946,636.948669 320.675629,636.999756 &#xA;&#x9;C327.387909,637.032410 328.991333,638.571411 328.995178,645.160950 &#xA;&#x9;C329.009674,669.819031 328.975189,694.477173 329.050018,719.135071 &#xA;&#x9;C329.055664,720.992310 329.776398,722.847351 330.570221,724.838745 &#xA;&#x9;C330.975739,724.974060 331.035461,725.027283 330.966248,725.363098 &#xA;&#x9;C330.049194,726.968262 329.201324,728.237610 328.353485,729.507019 &#xA;&#x9;C327.986328,729.381958 327.619171,729.256897 327.252014,729.131836 &#xA;&#x9;C327.252014,727.365112 327.251862,725.598389 327.252045,723.831665 &#xA;&#x9;C327.254730,698.014587 327.258270,672.197449 327.259491,646.380371 &#xA;&#x9;C327.259796,640.177612 326.111115,638.902222 320.121338,638.866699 &#xA;&#x9;C309.128632,638.801514 298.135284,638.792908 287.142395,638.823853 &#xA;&#x9;C281.639374,638.839355 279.993286,640.473755 279.992126,645.981873 &#xA;&#x9;C279.981415,696.617188 279.991333,747.252563 280.019409,797.887878 &#xA;&#x9;C280.022858,804.050964 281.445007,805.450989 287.736115,805.498901 &#xA;&#x9;C298.395020,805.580139 309.055847,805.485413 319.713287,805.641968 &#xA;&#x9;C325.462006,805.726379 327.163727,804.325195 327.198883,798.483215 &#xA;&#x9;C327.276001,785.658325 327.283691,772.833069 327.343018,760.008118 &#xA;&#x9;C327.351105,758.257507 327.492462,756.507629 327.572113,754.757385 &#xA;&#x9;C327.945557,754.658875 328.319031,754.560364 328.692474,754.461792 &#xA;&#x9;C331.518829,759.261597 334.345215,764.061401 337.122009,768.903320 &#xA;&#x9;C337.072418,768.945435 336.974976,769.031799 336.974976,769.031799 &#xA;z"></path>
<path fill="#7CB5DC" opacity="1.000000" stroke="none" d="&#xA;M338.992157,711.998047 &#xA;&#x9;C340.790070,708.514465 342.349335,704.879639 344.438965,701.580872 &#xA;&#x9;C348.039825,695.896545 351.719269,690.226074 355.839783,684.917786 &#xA;&#x9;C359.361511,680.380920 364.746246,682.891846 369.225708,682.701965 &#xA;&#x9;C380.642975,682.217957 392.089600,682.292114 403.521637,682.412354 &#xA;&#x9;C405.630035,682.434631 408.345093,683.165588 409.630188,684.599854 &#xA;&#x9;C410.658722,685.747681 410.622498,688.783325 409.850555,690.406433 &#xA;&#x9;C408.464142,693.321472 406.222229,695.844055 404.246216,698.461426 &#xA;&#x9;C399.393677,704.889160 394.489044,711.277588 389.196564,717.741150 &#xA;&#x9;C388.787781,717.800537 388.564758,717.589111 388.694824,717.274414 &#xA;&#x9;C394.677551,708.708069 400.608643,700.510071 406.319275,692.161316 &#xA;&#x9;C407.515656,690.412170 407.900055,688.107666 408.658661,686.059082 &#xA;&#x9;C406.665009,685.566345 404.675110,684.665588 402.677094,684.647339 &#xA;&#x9;C390.059143,684.531555 377.427765,684.933655 364.825653,684.478149 &#xA;&#x9;C359.302765,684.278442 356.406952,686.524658 353.719147,690.870789 &#xA;&#x9;C349.196716,698.183533 344.138214,705.164673 339.227234,712.213196 &#xA;&#x9;C339.149261,712.141052 338.992157,711.998047 338.992157,711.998047 &#xA;z"></path>
<path fill="#7CB5DC" opacity="1.000000" stroke="none" d="&#xA;M405.010315,787.987427 &#xA;&#x9;C408.167999,791.981689 411.560181,795.817017 414.409698,800.020203 &#xA;&#x9;C416.720551,803.428772 414.265381,805.839905 411.348633,806.893799 &#xA;&#x9;C408.790161,807.818298 405.833679,807.861267 403.047974,807.896606 &#xA;&#x9;C393.970337,808.011658 384.890411,807.960144 375.811401,807.941223 &#xA;&#x9;C371.863647,807.932983 367.748810,808.513000 364.024109,807.576172 &#xA;&#x9;C361.310059,806.893616 358.744141,804.488708 356.776184,802.264221 &#xA;&#x9;C354.390320,799.567444 352.596344,796.316101 350.735413,793.192078 &#xA;&#x9;C346.103638,785.416382 341.579193,777.576782 336.993286,769.397339 &#xA;&#x9;C336.974976,769.031799 337.072418,768.945435 337.396332,769.091492 &#xA;&#x9;C344.113129,779.158142 350.636627,788.998047 356.843689,799.033508 &#xA;&#x9;C359.937134,804.034973 363.495087,806.835449 369.848389,805.769958 &#xA;&#x9;C374.045685,805.066101 378.467133,805.700562 382.788208,805.732605 &#xA;&#x9;C390.927277,805.792908 399.069977,806.023071 407.204102,805.849731 &#xA;&#x9;C412.684845,805.732910 413.884613,803.129150 410.995819,798.454712 &#xA;&#x9;C408.903107,795.068359 406.764313,791.710449 404.737244,788.251953 &#xA;&#x9;C404.828430,788.163940 405.010315,787.987427 405.010315,787.987427 &#xA;z"></path>
<path fill="#38444C" opacity="1.000000" stroke="none" d="&#xA;M699.699951,471.296021 &#xA;&#x9;C698.642151,472.490662 697.446411,474.219452 695.808838,474.929932 &#xA;&#x9;C690.409546,477.272552 687.601685,480.589996 687.689209,487.024078 &#xA;&#x9;C688.030090,512.076355 687.868896,537.135559 687.955200,562.667358 &#xA;&#x9;C687.452087,563.191223 686.888245,563.239990 686.146118,563.110229 &#xA;&#x9;C686.060364,537.034180 686.272827,511.136078 686.137939,485.239746 &#xA;&#x9;C686.112854,480.411346 686.886047,477.007294 691.898743,475.300690 &#xA;&#x9;C694.527710,474.405640 696.881531,472.702179 699.699951,471.296021 &#xA;z"></path>
<path fill="#7CB5DC" opacity="1.000000" stroke="none" d="&#xA;M388.899048,717.906494 &#xA;&#x9;C385.805084,723.132385 383.042725,728.608215 379.285095,733.284241 &#xA;&#x9;C374.315735,739.468140 374.203674,740.692810 379.243835,746.688110 &#xA;&#x9;C381.164215,748.972351 381.775452,752.357300 382.916809,755.692261 &#xA;&#x9;C382.850311,756.143982 382.692688,756.290466 382.422577,756.105835 &#xA;&#x9;C379.546356,752.277588 376.965088,748.615845 374.326111,744.996216 &#xA;&#x9;C372.299225,742.216187 372.318939,739.571960 374.402039,736.791016 &#xA;&#x9;C379.170074,730.425659 383.849396,723.993896 388.564758,717.589111 &#xA;&#x9;C388.564758,717.589111 388.787781,717.800537 388.899048,717.906494 &#xA;z"></path>
<path fill="#7CB5DC" opacity="1.000000" stroke="none" d="&#xA;M386.062653,760.935120 &#xA;&#x9;C388.257416,763.034180 390.778503,764.888184 392.577667,767.284302 &#xA;&#x9;C396.108856,771.987122 399.310303,776.945251 402.492981,781.897583 &#xA;&#x9;C403.541687,783.529419 404.111969,785.468750 404.955658,787.627441 &#xA;&#x9;C405.010315,787.987427 404.828430,788.163940 404.467529,788.066284 &#xA;&#x9;C398.044983,778.999573 391.983337,770.030640 385.957245,761.030396 &#xA;&#x9;C385.992828,760.999146 386.062653,760.935120 386.062653,760.935120 &#xA;z"></path>
<path fill="#7CB5DC" opacity="1.000000" stroke="none" d="&#xA;M330.946289,724.946960 &#xA;&#x9;C330.872681,719.217834 334.720886,715.826904 338.691956,712.164368 &#xA;&#x9;C338.992157,711.998047 339.149261,712.141052 339.135315,712.549255 &#xA;&#x9;C336.426056,716.980713 333.730774,721.004028 331.035461,725.027283 &#xA;&#x9;C331.035461,725.027283 330.975739,724.974060 330.946289,724.946960 &#xA;z"></path>
<path fill="#15242F" opacity="1.000000" stroke="none" d="&#xA;M338.910095,403.629517 &#xA;&#x9;C344.209045,402.451813 347.959076,405.110107 350.956604,409.746613 &#xA;&#x9;C347.044281,408.030029 343.084564,405.958313 338.910095,403.629517 &#xA;z"></path>
<path fill="#7CB5DC" opacity="1.000000" stroke="none" d="&#xA;M565.828979,638.129578 &#xA;&#x9;C564.538513,638.838623 563.113647,639.277222 561.331177,639.815430 &#xA;&#x9;C561.695557,637.273865 563.063843,636.116821 565.828979,638.129578 &#xA;z"></path>
<path fill="#15242F" opacity="1.000000" stroke="none" d="&#xA;M259.321655,333.134644 &#xA;&#x9;C259.584564,334.108643 259.782898,335.429901 259.662628,336.873932 &#xA;&#x9;C259.315063,335.825104 259.286102,334.653473 259.321655,333.134644 &#xA;z"></path>
<path fill="#7CB5DC" opacity="1.000000" stroke="none" d="&#xA;M384.062622,757.931274 &#xA;&#x9;C384.709473,758.707947 385.356323,759.484619 386.032898,760.598206 &#xA;&#x9;C386.062653,760.935120 385.992828,760.999146 385.693481,760.866699 &#xA;&#x9;C384.905365,759.840759 384.416626,758.947388 383.962158,758.023926 &#xA;&#x9;C383.996460,757.993958 384.062622,757.931274 384.062622,757.931274 &#xA;z"></path>
<path fill="#7CB5DC" opacity="1.000000" stroke="none" d="&#xA;M382.930084,756.071777 &#xA;&#x9;C383.324921,756.456482 383.640015,756.913452 384.008850,757.650818 &#xA;&#x9;C384.062622,757.931274 383.996460,757.993958 383.736389,757.863159 &#xA;&#x9;C383.215118,757.251709 382.953918,756.771057 382.692688,756.290466 &#xA;&#x9;C382.692688,756.290466 382.850311,756.143982 382.930084,756.071777 &#xA;z"></path>
<path fill="#17242E" opacity="1.000000" stroke="none" d="&#xA;M684.785034,372.734619 &#xA;&#x9;C685.003357,372.998566 685.004822,373.496552 685.001709,373.749023 &#xA;&#x9;C684.998657,374.001495 684.992676,374.009521 684.696899,374.147766 &#xA;&#x9;C683.650574,375.000824 682.900085,375.715607 681.918457,376.666870 &#xA;&#x9;C676.358154,379.889099 671.235596,383.364594 665.642456,385.725342 &#xA;&#x9;C659.849548,388.170410 657.069336,391.738098 657.987793,398.001221 &#xA;&#x9;C654.179993,393.380768 650.708069,396.700165 647.010193,398.304199 &#xA;&#x9;C644.319763,399.471191 641.387573,400.080750 638.116577,400.910156 &#xA;&#x9;C644.124390,397.147583 650.578674,393.413696 657.624146,389.337799 &#xA;&#x9;C651.629822,386.049774 646.037842,382.972229 640.436646,379.911560 &#xA;&#x9;C590.510132,352.630524 540.575134,325.364929 490.685577,298.016327 &#xA;&#x9;C489.098267,297.146210 487.973877,295.431763 486.633667,294.110901 &#xA;&#x9;C487.941681,292.986176 489.112030,291.621002 490.582062,290.779327 &#xA;&#x9;C496.212738,287.555450 501.989166,284.585876 507.614441,281.352997 &#xA;&#x9;C511.821716,278.935059 515.581177,279.354065 519.797607,281.684326 &#xA;&#x9;C574.681763,312.016693 629.632629,342.228516 684.785034,372.734619 &#xA;z"></path>
<path fill="#16242E" opacity="1.000000" stroke="none" d="&#xA;M480.034363,312.958923 &#xA;&#x9;C502.111389,324.966339 523.852722,336.822815 545.594543,348.678589 &#xA;&#x9;C547.344116,349.632629 549.139771,350.510834 550.838501,351.547943 &#xA;&#x9;C554.078796,353.526276 553.869141,355.919861 550.868103,357.650482 &#xA;&#x9;C539.493347,364.210052 528.094482,370.745453 516.457764,376.816772 &#xA;&#x9;C514.386230,377.897614 510.660156,377.618805 508.509308,376.460907 &#xA;&#x9;C481.435974,361.886200 454.495178,347.064636 427.566803,332.222229 &#xA;&#x9;C423.358734,329.902832 423.533325,326.524353 427.891235,324.109711 &#xA;&#x9;C438.067108,318.471375 448.355530,313.034546 458.488373,307.320923 &#xA;&#x9;C462.536865,305.038086 466.184875,304.849030 470.141235,307.432404 &#xA;&#x9;C473.195038,309.426483 476.503540,311.030426 480.034363,312.958923 &#xA;z"></path>
<path fill="#17242E" opacity="1.000000" stroke="none" d="&#xA;M636.661377,401.239197 &#xA;&#x9;C637.134399,403.156311 637.267090,405.132446 637.429749,407.555481 &#xA;&#x9;C634.902161,407.555481 631.883118,406.659576 629.983459,407.737061 &#xA;&#x9;C625.681702,410.176971 621.983398,413.661407 617.936279,416.577545 &#xA;&#x9;C615.840942,418.087280 613.534485,419.306824 611.306641,420.629242 &#xA;&#x9;C608.350891,422.383667 605.339050,424.049377 602.460876,425.921692 &#xA;&#x9;C602.073303,426.173859 602.323669,427.406769 602.247437,428.724182 &#xA;&#x9;C603.989136,428.487427 605.488098,427.895996 606.745789,428.225494 &#xA;&#x9;C607.922913,428.533875 609.575500,429.742035 609.674622,430.694183 &#xA;&#x9;C609.775696,431.664764 608.344360,433.599091 607.398865,433.725372 &#xA;&#x9;C604.429382,434.121796 601.181091,435.021454 599.497437,430.735901 &#xA;&#x9;C598.858704,429.110229 596.242432,428.261505 595.633301,427.834198 &#xA;&#x9;C586.525208,431.679413 579.738281,437.906891 569.963623,438.374084 &#xA;&#x9;C591.821228,425.914917 614.071106,413.606567 636.661377,401.239197 &#xA;z"></path>
<path fill="#17242E" opacity="1.000000" stroke="none" d="&#xA;M568.856201,438.588867 &#xA;&#x9;C567.735596,441.550476 566.302490,444.624329 564.949219,447.527069 &#xA;&#x9;C561.712402,446.901672 559.171143,446.410675 556.212646,445.877472 &#xA;&#x9;C560.044861,443.457245 564.294312,441.079193 568.856201,438.588867 &#xA;z"></path>
<path fill="#FAFCFD" opacity="1.000000" stroke="none" d="&#xA;M658.082764,398.460297 &#xA;&#x9;C657.069336,391.738098 659.849548,388.170410 665.642456,385.725342 &#xA;&#x9;C671.235596,383.364594 676.358154,379.889099 682.236633,376.593109 &#xA;&#x9;C683.519348,375.839447 684.252869,375.395996 685.258179,374.934692 &#xA;&#x9;C685.701233,374.856659 685.872559,374.796448 686.043945,374.736206 &#xA;&#x9;C686.227600,376.882538 686.411194,379.028870 686.588867,382.030518 &#xA;&#x9;C686.643005,387.936096 686.703186,392.986359 686.763367,398.036652 &#xA;&#x9;C686.679199,399.413635 686.595093,400.790588 686.505859,402.986847 &#xA;&#x9;C686.575745,417.839294 686.650696,431.872498 686.725586,445.905670 &#xA;&#x9;C686.585388,447.003479 686.445129,448.101288 686.251465,449.530518 &#xA;&#x9;C686.198059,449.861938 686.115906,449.920929 685.775452,449.795532 &#xA;&#x9;C680.466187,446.977020 675.726318,443.665253 670.479431,441.723450 &#xA;&#x9;C660.514954,438.035767 655.924072,431.713959 658.105225,421.036011 &#xA;&#x9;C658.169006,420.723663 658.056763,420.375336 658.026611,420.043762 &#xA;&#x9;C658.068115,419.868988 658.109741,419.694244 658.201172,418.869995 &#xA;&#x9;C658.170654,417.147034 658.090332,416.073547 658.010010,415.000061 &#xA;&#x9;C658.065918,409.639832 658.121826,404.279602 658.082764,398.460297 &#xA;z"></path>
<path fill="#7CB5DC" opacity="1.000000" stroke="none" d="&#xA;M657.706543,420.179626 &#xA;&#x9;C658.056763,420.375336 658.169006,420.723663 658.105225,421.036011 &#xA;&#x9;C655.924072,431.713959 660.514954,438.035767 670.479431,441.723450 &#xA;&#x9;C675.726318,443.665253 680.466187,446.977020 685.739502,449.831116 &#xA;&#x9;C677.065491,454.725311 668.086914,459.458527 658.753784,464.232239 &#xA;&#x9;C652.343201,452.870972 646.287231,441.469208 639.973938,429.583160 &#xA;&#x9;C645.767639,426.499542 651.577087,423.407532 657.706543,420.179626 &#xA;z"></path>
<path fill="#17242E" opacity="1.000000" stroke="none" d="&#xA;M657.641724,415.010132 &#xA;&#x9;C658.090332,416.073547 658.170654,417.147034 658.134094,418.609009 &#xA;&#x9;C656.598999,418.914459 655.180847,418.831390 653.762634,418.748322 &#xA;&#x9;C653.554810,418.333588 653.346985,417.918854 653.139160,417.504120 &#xA;&#x9;C654.517212,416.676147 655.895325,415.848175 657.641724,415.010132 &#xA;z"></path>
<path fill="#7CB5DC" opacity="1.000000" stroke="none" d="&#xA;M658.290527,466.328064 &#xA;&#x9;C658.542419,466.843231 658.653748,467.730469 658.576660,468.827576 &#xA;&#x9;C658.308777,468.258331 658.229370,467.479279 658.290527,466.328064 &#xA;z"></path>
<path fill="#7CB5DC" opacity="1.000000" stroke="none" d="&#xA;M833.255798,764.397522 &#xA;&#x9;C820.177490,771.391663 806.927368,767.618286 801.796326,755.502075 &#xA;&#x9;C797.125916,744.473572 799.271606,727.860901 814.298706,722.780273 &#xA;&#x9;C830.184753,717.409241 845.646301,731.277893 842.709717,748.716125 &#xA;&#x9;C841.655212,754.977905 839.017029,760.453003 833.255798,764.397522 &#xA;z"></path>
<path fill="#7CB5DC" opacity="1.000000" stroke="none" d="&#xA;M471.388428,766.934631 &#xA;&#x9;C461.474762,763.185791 457.047974,756.108765 456.794098,746.071228 &#xA;&#x9;C456.547791,736.335754 459.373657,728.276184 468.748352,723.825745 &#xA;&#x9;C477.649933,719.600037 488.642731,721.718323 494.978394,728.663635 &#xA;&#x9;C501.190826,735.473877 502.142700,749.147522 497.007629,757.814148 &#xA;&#x9;C492.007812,766.252502 482.632843,769.682312 471.388428,766.934631 &#xA;z"></path>
<path fill="#16242E" opacity="1.000000" stroke="none" d="&#xA;M687.050964,445.645294 &#xA;&#x9;C686.650696,431.872498 686.575745,417.839294 686.627686,403.385620 &#xA;&#x9;C687.168274,403.997803 687.935547,405.028381 687.941833,406.063507 &#xA;&#x9;C688.016479,418.547424 687.987244,431.032104 687.945129,443.516418 &#xA;&#x9;C687.942993,444.139893 687.574280,444.762115 687.050964,445.645294 &#xA;z"></path>
<path fill="#16242E" opacity="1.000000" stroke="none" d="&#xA;M687.074097,397.748871 &#xA;&#x9;C686.703186,392.986359 686.643005,387.936096 686.702026,382.430145 &#xA;&#x9;C687.009094,387.136688 687.196960,392.298889 687.074097,397.748871 &#xA;z"></path>
<path fill="#17242E" opacity="1.000000" stroke="none" d="&#xA;M685.893677,374.582825 &#xA;&#x9;C685.872559,374.796448 685.701233,374.856659 685.260559,374.698944 &#xA;&#x9;C684.991150,374.481049 684.992676,374.009521 684.992676,374.009521 &#xA;&#x9;C684.992676,374.009521 684.998657,374.001495 685.002991,373.998016 &#xA;&#x9;C685.278870,374.095215 685.524231,374.240173 685.893677,374.582825 &#xA;z"></path>
<path fill="#15242F" opacity="1.000000" stroke="none" d="&#xA;M263.000000,342.203644 &#xA;&#x9;C263.000000,340.147827 263.000000,338.547211 263.000000,336.946625 &#xA;&#x9;C263.430786,336.926605 263.861542,336.906586 264.292328,336.886566 &#xA;&#x9;C264.292328,341.940582 264.292328,346.994568 264.292328,352.048553 &#xA;&#x9;C263.861542,352.085144 263.430786,352.121765 263.000000,352.158356 &#xA;&#x9;C263.000000,348.991852 263.000000,345.825378 263.000000,342.203644 &#xA;z"></path>
<path fill="#15242F" opacity="1.000000" stroke="none" d="&#xA;M355.323547,388.394196 &#xA;&#x9;C354.996521,388.247498 354.818542,387.959686 354.640564,387.671906 &#xA;&#x9;C354.917908,387.865631 355.195221,388.059387 355.323547,388.394196 &#xA;z"></path>
<path fill="#FCFDFE" opacity="1.000000" stroke="none" d="&#xA;M382.422577,756.105835 &#xA;&#x9;C382.953918,756.771057 383.215118,757.251709 383.702087,757.893127 &#xA;&#x9;C384.416626,758.947388 384.905365,759.840759 385.657898,760.897949 &#xA;&#x9;C391.983337,770.030640 398.044983,778.999573 404.376343,788.154236 &#xA;&#x9;C406.764313,791.710449 408.903107,795.068359 410.995819,798.454712 &#xA;&#x9;C413.884613,803.129150 412.684845,805.732910 407.204102,805.849731 &#xA;&#x9;C399.069977,806.023071 390.927277,805.792908 382.788208,805.732605 &#xA;&#x9;C378.467133,805.700562 374.045685,805.066101 369.848389,805.769958 &#xA;&#x9;C363.495087,806.835449 359.937134,804.034973 356.843689,799.033508 &#xA;&#x9;C350.636627,788.998047 344.113129,779.158142 337.445923,769.049316 &#xA;&#x9;C334.345215,764.061401 331.518829,759.261597 328.692474,754.461792 &#xA;&#x9;C328.319031,754.560364 327.945557,754.658875 327.572113,754.757385 &#xA;&#x9;C327.492462,756.507629 327.351105,758.257507 327.343018,760.008118 &#xA;&#x9;C327.283691,772.833069 327.276001,785.658325 327.198883,798.483215 &#xA;&#x9;C327.163727,804.325195 325.462006,805.726379 319.713287,805.641968 &#xA;&#x9;C309.055847,805.485413 298.395020,805.580139 287.736115,805.498901 &#xA;&#x9;C281.445007,805.450989 280.022858,804.050964 280.019409,797.887878 &#xA;&#x9;C279.991333,747.252563 279.981415,696.617188 279.992126,645.981873 &#xA;&#x9;C279.993286,640.473755 281.639374,638.839355 287.142395,638.823853 &#xA;&#x9;C298.135284,638.792908 309.128632,638.801514 320.121338,638.866699 &#xA;&#x9;C326.111115,638.902222 327.259796,640.177612 327.259491,646.380371 &#xA;&#x9;C327.258270,672.197449 327.254730,698.014587 327.252045,723.831665 &#xA;&#x9;C327.251862,725.598389 327.252014,727.365112 327.252014,729.131836 &#xA;&#x9;C327.619171,729.256897 327.986328,729.381958 328.353485,729.507019 &#xA;&#x9;C329.201324,728.237610 330.049194,726.968262 330.966248,725.363098 &#xA;&#x9;C333.730774,721.004028 336.426056,716.980713 339.213287,712.621399 &#xA;&#x9;C344.138214,705.164673 349.196716,698.183533 353.719147,690.870789 &#xA;&#x9;C356.406952,686.524658 359.302765,684.278442 364.825653,684.478149 &#xA;&#x9;C377.427765,684.933655 390.059143,684.531555 402.677094,684.647339 &#xA;&#x9;C404.675110,684.665588 406.665009,685.566345 408.658661,686.059082 &#xA;&#x9;C407.900055,688.107666 407.515656,690.412170 406.319275,692.161316 &#xA;&#x9;C400.608643,700.510071 394.677551,708.708069 388.694824,717.274414 &#xA;&#x9;C383.849396,723.993896 379.170074,730.425659 374.402039,736.791016 &#xA;&#x9;C372.318939,739.571960 372.299225,742.216187 374.326111,744.996216 &#xA;&#x9;C376.965088,748.615845 379.546356,752.277588 382.422577,756.105835 &#xA;z"></path>
<path fill="#162731" opacity="1.000000" stroke="none" d="&#xA;M684.696899,374.147766 &#xA;&#x9;C684.992676,374.009521 684.991150,374.481049 684.988770,374.716797 &#xA;&#x9;C684.252869,375.395996 683.519348,375.839447 682.467712,376.356659 &#xA;&#x9;C682.900085,375.715607 683.650574,375.000824 684.696899,374.147766 &#xA;z"></path>
</svg>